<?xml version="1.0" encoding="utf-8" ?><svg xmlns="http://www.w3.org/2000/svg" xmlns:xlink="http://www.w3.org/1999/xlink" width="1024" height="1024" viewBox="0 0 1024 1024"><path fill="white" d="M0 0L1024 0L1024 1024L0 1024L0 0Z"/><path d="M602.95 146.694C621.135 144.324 645.1 152.394 658.127 165.131C663.624 170.506 668.523 176.522 673.726 182.213L706.178 217.708L798.336 319.019L849.405 374.7C855.647 381.49 866.463 391.236 871.128 398.586C886.55 422.886 886.946 458.842 869.854 482.405C862.893 492.001 854.036 500.662 845.985 509.275L813.378 544.713L674.097 698.641C600.112 780.139 490.548 666.217 568.635 592.847C577.587 584.436 587.417 573.369 596.099 564.306L644.135 513.511C633.822 513.303 623.005 513.918 612.78 513.453C503.268 508.469 407.462 551.554 339.249 639.285C333.311 646.511 327.363 655.655 322.28 663.494C295.775 704.366 279.881 751.221 272.393 799.253C271.198 807.405 270.305 815.599 269.717 823.817C269.114 832.205 268.831 841.647 266.611 849.699C263.075 862.835 256.247 874.851 246.773 884.612C233.377 898.333 214.576 907.057 195.302 907.285C174.864 907.608 155.161 899.666 140.661 885.259C126.688 871.476 118.68 852.398 118.941 832.877C119.218 812.072 122.502 788.415 126.247 768.029C144.264 669.339 191.492 578.331 261.816 506.785C336.619 430.21 435.747 382.064 542.181 370.615C571.885 367.383 612.565 367.7 642.666 367.439C611.543 334.717 581.19 300.566 550.396 267.475C542.16 258.625 537.137 243.069 535.769 231.209C530.66 186.898 558.745 151.882 602.95 146.694Z"/></svg>